<svg width="34" height="35" viewBox="0 0 34 35" fill="none" xmlns="http://www.w3.org/2000/svg">
<g clip-path="url(#clip0_71_1639)">
<path d="M31.4832 0H2.51016C1.12227 0 0 1.12793 0 2.52246V32.4707C0 33.8652 1.12227 35 2.51016 35H31.4832C32.8711 35 34 33.8652 34 32.4775V2.52246C34 1.12793 32.8711 0 31.4832 0ZM10.0871 29.8252H5.04023V13.1182H10.0871V29.8252ZM7.56367 10.8418C5.94336 10.8418 4.63516 9.49512 4.63516 7.83398C4.63516 6.17285 5.94336 4.82617 7.56367 4.82617C9.17734 4.82617 10.4855 6.17285 10.4855 7.83398C10.4855 9.48828 9.17734 10.8418 7.56367 10.8418ZM28.973 29.8252H23.9328V21.7041C23.9328 19.7695 23.8996 17.2744 21.3098 17.2744C18.6867 17.2744 18.2883 19.3867 18.2883 21.5674V29.8252H13.2547V13.1182H18.0891V15.4014H18.1555C18.8262 14.0889 20.473 12.7012 22.9234 12.7012C28.0301 12.7012 28.973 16.1602 28.973 20.6582V29.8252Z" fill="#2C2B2B"/>
</g>
<defs>
<clipPath id="clip0_71_1639">
<rect width="34" height="35" fill="white"/>
</clipPath>
</defs>
</svg>
