<svg width="34" height="35" viewBox="0 0 34 35" fill="none" xmlns="http://www.w3.org/2000/svg">
<path d="M0 35L2.38991 26.0123C0.915165 23.3815 0.14025 20.3992 0.141666 17.341C0.145916 7.78021 7.70382 0 16.99 0C21.4965 0.00145833 25.7266 1.80833 28.9084 5.08667C32.0888 8.365 33.8398 12.7225 33.8384 17.3571C33.8342 26.9194 26.2763 34.6996 16.99 34.6996C14.1709 34.6981 11.3928 33.9704 8.93206 32.5879L0 35ZM9.34573 29.4481C11.7201 30.8992 13.9867 31.7683 16.9844 31.7698C24.7024 31.7698 30.9895 25.3035 30.9938 17.3542C30.9966 9.38875 24.7392 2.93125 16.9957 2.92833C9.27206 2.92833 2.98916 9.39458 2.98633 17.3425C2.98491 20.5873 3.90857 23.0169 5.45982 25.5587L4.04457 30.8788L9.34573 29.4481ZM25.4773 21.4798C25.3724 21.299 25.0919 21.191 24.6698 20.9738C24.249 20.7565 22.1793 19.7079 21.7925 19.5635C21.4072 19.4192 21.1267 19.3463 20.8448 19.7808C20.5643 20.214 19.7568 21.191 19.5117 21.4798C19.2666 21.7685 19.0201 21.805 18.5994 21.5877C18.1786 21.3704 16.8215 20.914 15.2135 19.4367C13.9626 18.2875 13.1169 16.8685 12.8718 16.434C12.6267 16.0008 12.8463 15.766 13.056 15.5502C13.2458 15.3563 13.4767 15.0442 13.6878 14.7904C13.9017 14.5396 13.9711 14.3588 14.1128 14.0685C14.2531 13.7798 14.1836 13.526 14.0774 13.3088C13.9711 13.0929 13.1296 10.9594 12.7797 10.0917C12.4369 9.24729 12.0898 9.36104 11.832 9.34792L11.0245 9.33333C10.744 9.33333 10.2878 9.44125 9.90248 9.87583C9.51715 10.3104 8.42915 11.3575 8.42915 13.491C8.42915 15.6246 9.93789 17.6852 10.1476 17.974C10.3586 18.2627 13.1155 22.6406 17.3385 24.5175C18.343 24.9638 19.1278 25.2306 19.7384 25.4304C20.747 25.76 21.665 25.7133 22.3904 25.6025C23.1993 25.4785 24.8809 24.554 25.2322 23.5419C25.5835 22.5283 25.5835 21.6606 25.4773 21.4798Z" fill="white"/>
</svg>
