<svg width="34" height="35" viewBox="0 0 34 35" fill="none" xmlns="http://www.w3.org/2000/svg">
<g clip-path="url(#clip0_71_1640)">
<path d="M16.9997 14.3181V21.0954H26.1488C25.7471 23.2749 24.5415 25.1205 22.7333 26.3614L28.2505 30.7682C31.4651 27.7138 33.3196 23.2274 33.3196 17.8978C33.3196 16.6569 33.2115 15.4637 33.0105 14.3183L16.9997 14.3181Z" fill="#2C2B2B"/>
<path d="M7.47245 20.8309L6.2281 21.8114L1.82349 25.3432C4.62075 31.0545 10.354 35 16.9994 35C21.5892 35 25.4374 33.4409 28.2502 30.7682L22.7329 26.3614C21.2184 27.4114 19.2865 28.0478 16.9994 28.0478C12.5794 28.0478 8.82405 24.9774 7.4794 20.841L7.47245 20.8309Z" fill="#2C2B2B"/>
<path d="M1.8235 9.6568C0.664476 12.0112 0 14.6681 0 17.4999C0 20.3316 0.664476 22.9885 1.8235 25.343C1.8235 25.3588 7.47996 20.8248 7.47996 20.8248C7.13997 19.7748 6.939 18.6612 6.939 17.4997C6.939 16.3382 7.13997 15.2246 7.47996 14.1746L1.8235 9.6568Z" fill="#2C2B2B"/>
<path d="M16.9997 6.96818C19.5034 6.96818 21.7288 7.85906 23.5061 9.57727L28.3742 4.56597C25.4224 1.7342 21.5898 0 16.9997 0C10.3543 0 4.62075 3.92954 1.82349 9.65683L7.47977 14.175C8.82424 10.0386 12.5797 6.96818 16.9997 6.96818Z" fill="#2C2B2B"/>
</g>
<defs>
<clipPath id="clip0_71_1640">
<rect width="34" height="35" fill="white"/>
</clipPath>
</defs>
</svg>
