<svg width="35" height="33" viewBox="0 0 35 33" fill="none" xmlns="http://www.w3.org/2000/svg">
<path fill-rule="evenodd" clip-rule="evenodd" d="M16.7507 6.55589C11.2611 6.91823 6.927 11.2319 6.927 16.5C6.927 22.0056 11.6607 26.4687 17.4999 26.4687C22.1781 26.4687 26.1474 23.6035 27.5403 19.6332C26.4683 20.0507 25.2934 20.2812 24.0624 20.2812C19.0286 20.2812 14.9478 16.4337 14.9478 11.6875C14.9478 9.76368 15.6188 7.9875 16.7507 6.55589ZM4.7395 16.5C4.7395 9.85532 10.4525 4.46875 17.4999 4.46875C18.1556 4.46875 18.8004 4.51547 19.4307 4.60573C19.8667 4.66816 20.2202 4.97136 20.3274 5.37468C20.4346 5.77801 20.2743 6.20256 19.9211 6.45142C18.228 7.6441 17.1353 9.54536 17.1353 11.6875C17.1353 15.2946 20.2367 18.2187 24.0624 18.2187C25.7165 18.2187 27.2325 17.6734 28.4236 16.7621C28.7659 16.5003 29.2414 16.4577 29.6298 16.6541C30.0182 16.8506 30.2436 17.2476 30.2016 17.6613C29.5812 23.7616 24.132 28.5312 17.4999 28.5312C10.4525 28.5312 4.7395 23.1447 4.7395 16.5Z" fill="#24272C"/>
</svg>
