<svg width="35" height="33" viewBox="0 0 35 33" fill="none" xmlns="http://www.w3.org/2000/svg">
<path d="M17.5 1.71875C18.104 1.71875 18.5937 2.18046 18.5937 2.75V4.125C18.5937 4.69454 18.104 5.15625 17.5 5.15625C16.8959 5.15625 16.4062 4.69454 16.4062 4.125V2.75C16.4062 2.18046 16.8959 1.71875 17.5 1.71875Z" fill="#E9EAF0"/>
<path fill-rule="evenodd" clip-rule="evenodd" d="M9.11454 16.5C9.11454 12.1335 12.8688 8.59375 17.5 8.59375C22.1311 8.59375 25.8854 12.1335 25.8854 16.5C25.8854 20.8665 22.1311 24.4062 17.5 24.4062C12.8688 24.4062 9.11454 20.8665 9.11454 16.5ZM17.5 10.6562C14.0769 10.6562 11.302 13.2726 11.302 16.5C11.302 19.7274 14.0769 22.3437 17.5 22.3437C20.923 22.3437 23.6979 19.7274 23.6979 16.5C23.6979 13.2726 20.923 10.6562 17.5 10.6562Z" fill="#E9EAF0"/>
<path d="M7.9614 6.04811C7.53427 5.64538 6.84174 5.64538 6.41461 6.04811C5.98747 6.45084 5.98747 7.10379 6.41461 7.50652L7.44581 8.47879C7.87294 8.88152 8.56546 8.88152 8.9926 8.47879C9.41974 8.07606 9.41974 7.42311 8.9926 7.02038L7.9614 6.04811Z" fill="#E9EAF0"/>
<path d="M33.177 16.5C33.177 17.0695 32.6874 17.5312 32.0833 17.5312H30.625C30.0209 17.5312 29.5312 17.0695 29.5312 16.5C29.5312 15.9305 30.0209 15.4687 30.625 15.4687H32.0833C32.6874 15.4687 33.177 15.9305 33.177 16.5Z" fill="#E9EAF0"/>
<path d="M28.5853 7.5065C29.0124 7.10378 29.0124 6.45083 28.5853 6.0481C28.1582 5.64537 27.4656 5.64537 27.0385 6.0481L26.0073 7.02037C25.5802 7.4231 25.5802 8.07605 26.0073 8.47878C26.4344 8.8815 27.127 8.8815 27.5541 8.47878L28.5853 7.5065Z" fill="#E9EAF0"/>
<path d="M17.5 27.8437C18.104 27.8437 18.5937 28.3055 18.5937 28.875V30.25C18.5937 30.8195 18.104 31.2812 17.5 31.2812C16.8959 31.2812 16.4062 30.8195 16.4062 30.25V28.875C16.4062 28.3055 16.8959 27.8437 17.5 27.8437Z" fill="#E9EAF0"/>
<path d="M27.5542 24.5212C27.1271 24.1185 26.4345 24.1185 26.0074 24.5212C25.5803 24.924 25.5803 25.5769 26.0074 25.9796L27.0386 26.9519C27.4657 27.3546 28.1583 27.3546 28.5854 26.9519C29.0125 26.5492 29.0125 25.8962 28.5854 25.4935L27.5542 24.5212Z" fill="#E9EAF0"/>
<path d="M5.46871 16.5C5.46871 17.0695 4.97902 17.5312 4.37496 17.5312H2.91663C2.31256 17.5312 1.82288 17.0695 1.82288 16.5C1.82288 15.9305 2.31256 15.4687 2.91663 15.4687H4.37496C4.97902 15.4687 5.46871 15.9305 5.46871 16.5Z" fill="#E9EAF0"/>
<path d="M8.9925 25.9796C9.41964 25.5769 9.41964 24.9239 8.9925 24.5212C8.56537 24.1185 7.87284 24.1185 7.44571 24.5212L6.41451 25.4935C5.98737 25.8962 5.98737 26.5492 6.41451 26.9519C6.84165 27.3546 7.53417 27.3546 7.96131 26.9519L8.9925 25.9796Z" fill="#E9EAF0"/>
</svg>
