<svg width="34" height="35" viewBox="0 0 34 35" fill="none" xmlns="http://www.w3.org/2000/svg">
<path fill-rule="evenodd" clip-rule="evenodd" d="M17.0141 0C7.60573 0 0 8.0208 0 17.9436C0 25.8755 4.87325 32.5896 11.6337 34.9659C12.479 35.1446 12.7886 34.5799 12.7886 34.1048C12.7886 33.6888 12.7607 32.2629 12.7607 30.7773C8.02782 31.847 7.04224 28.6383 7.04224 28.6383C6.28163 26.5587 5.15465 26.0242 5.15465 26.0242C3.60557 24.925 5.26749 24.925 5.26749 24.925C6.98582 25.0439 7.88747 26.7669 7.88747 26.7669C9.40834 29.4998 11.8591 28.7276 12.845 28.2522C12.9857 27.0935 13.4367 26.2915 13.9156 25.8459C10.1407 25.4299 6.16914 23.8852 6.16914 16.9928C6.16914 15.0321 6.84477 13.4279 7.91533 12.1803C7.74643 11.7348 7.15473 9.89256 8.08459 7.4269C8.08459 7.4269 9.52118 6.95148 12.7604 9.26876C14.1472 8.87599 15.5774 8.67618 17.0141 8.6745C18.4507 8.6745 19.9151 8.88267 21.2674 9.26876C24.507 6.95148 25.9435 7.4269 25.9435 7.4269C26.8734 9.89256 26.2814 11.7348 26.1125 12.1803C27.2112 13.4279 27.859 15.0321 27.859 16.9928C27.859 23.8852 23.8874 25.4001 20.0844 25.8459C20.7043 26.4103 21.2392 27.4796 21.2392 29.1731C21.2392 31.5793 21.2113 33.5105 21.2113 34.1044C21.2113 34.5799 21.5213 35.1446 22.3662 34.9663C29.1267 32.5892 33.9999 25.8755 33.9999 17.9436C34.0278 8.0208 26.3942 0 17.0141 0Z" fill="white"/>
</svg>
